<svg xmlns="http://www.w3.org/2000/svg" viewBox="0 0 1200 320" aria-label="Cardumen">
  
  <g>
    <g fill="#1F3A5F">
      <g transform="translate(150 40)"><polygon points="0,0 38,16 0,32"></polygon><polygon points="0,8 -14,16 0,24"></polygon></g>
      <g transform="translate(210 50)"><polygon points="0,0 44,18 0,36"></polygon><polygon points="0,9 -16,18 0,27"></polygon></g>
      <g transform="translate(270 60) scale(0.85)"><polygon points="0,0 40,17 0,34"></polygon><polygon points="0,8 -15,17 0,26"></polygon></g>
      <g transform="translate(110 80)"><polygon points="0,0 32,14 0,28"></polygon><polygon points="0,7 -12,14 0,21"></polygon></g>
      <g transform="translate(175 95) scale(0.9)"><polygon points="0,0 46,18 0,36"></polygon><polygon points="0,9 -16,18 0,27"></polygon></g>
      <g transform="translate(255 110) scale(0.8)"><polygon points="0,0 38,16 0,32"></polygon><polygon points="0,8 -14,16 0,24"></polygon></g>
      <g transform="translate(80 140)"><polygon points="0,0 34,14 0,28"></polygon><polygon points="0,7 -12,14 0,21"></polygon></g>
      <g transform="translate(140 150)"><polygon points="0,0 48,20 0,40"></polygon><polygon points="0,10 -18,20 0,30"></polygon></g>
      <g transform="translate(100 190)"><polygon points="0,0 40,16 0,32"></polygon><polygon points="0,8 -15,16 0,24"></polygon></g>
      <g transform="translate(170 205) scale(0.95)"><polygon points="0,0 44,18 0,36"></polygon><polygon points="0,9 -16,18 0,27"></polygon></g>
      <g transform="translate(250 215) scale(0.85)"><polygon points="0,0 40,16 0,32"></polygon><polygon points="0,8 -15,16 0,24"></polygon></g>
      <g transform="translate(130 245) scale(0.85)"><polygon points="0,0 38,16 0,32"></polygon><polygon points="0,8 -14,16 0,24"></polygon></g>
      <g transform="translate(195 255) scale(0.75)"><polygon points="0,0 42,18 0,36"></polygon><polygon points="0,9 -15,18 0,27"></polygon></g>
      <g transform="translate(60 110) scale(0.65)"><polygon points="0,0 34,14 0,28"></polygon><polygon points="0,7 -12,14 0,21"></polygon></g>
      <g transform="translate(70 220) scale(0.7)"><polygon points="0,0 34,14 0,28"></polygon><polygon points="0,7 -12,14 0,21"></polygon></g>
      <g transform="translate(225 155) scale(0.7)"><polygon points="0,0 34,14 0,28"></polygon><polygon points="0,7 -12,14 0,21"></polygon></g>
    </g>
    <g fill="#D4A94A" transform="translate(230 130)">
      <polygon points="0,0 100,42 0,84"></polygon>
      <polygon points="0,21 -36,42 0,63"></polygon>
      <circle cx="78" cy="40" r="3" fill="#FAF5E9"></circle>
    </g>
  </g>
  <text x="430" y="190" font-family="&#39;Fraunces&#39;,&#39;Georgia&#39;,serif" font-weight="400" font-size="158" letter-spacing="-0.02em" fill="#1F1A13">Cardumen</text>
  <text x="432" y="240" font-family="&#39;DM Sans&#39;,sans-serif" font-size="34" fill="#4A4030">Estudiamos juntos, llegamos lejos.</text>
</svg>